<?xml version="1.0" encoding="UTF-8" standalone="no"?>
<!-- Created with Inkscape (http://www.inkscape.org/) -->

<svg
   width="99.692093mm"
   height="82.088516mm"
   viewBox="0 0 99.692093 82.088516"
   version="1.1"
   id="svg1"
   inkscape:version="1.4 (e7c3feb1, 2024-10-09)"
   sodipodi:docname="mickey.svg"
   xmlns:inkscape="http://www.inkscape.org/namespaces/inkscape"
   xmlns:sodipodi="http://sodipodi.sourceforge.net/DTD/sodipodi-0.dtd"
   xmlns="http://www.w3.org/2000/svg"
   xmlns:svg="http://www.w3.org/2000/svg">
  <sodipodi:namedview
     id="namedview1"
     pagecolor="#ffffff"
     bordercolor="#000000"
     borderopacity="0.25"
     inkscape:showpageshadow="2"
     inkscape:pageopacity="0.0"
     inkscape:pagecheckerboard="0"
     inkscape:deskcolor="#d1d1d1"
     inkscape:document-units="mm"
     inkscape:zoom="0.45572546"
     inkscape:cx="-40.594616"
     inkscape:cy="31.817401"
     inkscape:window-width="1512"
     inkscape:window-height="916"
     inkscape:window-x="-1"
     inkscape:window-y="38"
     inkscape:window-maximized="0"
     inkscape:current-layer="layer1" />
  <defs
     id="defs1" />
  <g
     inkscape:label="Layer 1"
     inkscape:groupmode="layer"
     id="layer1"
     transform="translate(-55.153749,-96.486627)">
    <path
       id="path2"
       style="fill:#000000;fill-opacity:1;stroke:#848484;stroke-width:3.48814;stroke-linecap:round;stroke-opacity:1"
       d="m 76.536414,98.230697 a 19.638433,19.638433 0 0 0 -19.638595,19.638593 19.638433,19.638433 0 0 0 19.638595,19.6386 19.638433,19.638433 0 0 0 2.468583,-0.17674 28.33106,28.33106 0 0 0 -2.336292,11.16883 28.33106,28.33106 0 0 0 28.331085,28.33109 28.33106,28.33106 0 0 0 28.33109,-28.33109 28.33106,28.33106 0 0 0 -2.30012,-11.16573 19.638433,19.638433 0 0 0 2.43241,0.17364 19.638433,19.638433 0 0 0 19.6386,-19.63808 19.638433,19.638433 0 0 0 -19.6386,-19.638597 19.638433,19.638433 0 0 0 -19.63859,19.638597 19.638433,19.638433 0 0 0 0.43201,3.86023 28.33106,28.33106 0 0 0 -9.2568,-1.56115 28.33106,28.33106 0 0 0 -9.271266,1.62884 19.638433,19.638433 0 0 0 0.446484,-3.92844 19.638433,19.638433 0 0 0 -19.638594,-19.638593 z" />
  </g>
</svg>
