<svg xmlns="http://www.w3.org/2000/svg" xml:space="preserve" width="512" height="512" viewBox="0 0 135.467 135.467"><rect width="135.467" height="135.467" rx="25" ry="25" style="fill:#f7eddc;fill-opacity:1;stroke-width:.529167;stroke-linecap:round;paint-order:stroke fill markers"/><path d="M53.105 94.508A35.944 35.25 0 0 1 81.023 53 35.944 35.25 0 0 1 123.49 80.17a35.944 35.25 0 0 1-27.486 41.783A35.944 35.25 0 0 1 53.258 95.21" style="fill:#ecdcce;fill-opacity:1;stroke-width:.42411;stroke-linecap:round;paint-order:stroke fill markers"/><path d="M18.977 75.597A23.048 22.873 0 0 1 36.88 48.664a23.048 22.873 0 0 1 27.23 17.629 23.048 22.873 0 0 1-17.625 27.113 23.048 22.873 0 0 1-27.409-17.353" style="fill:#ecdcce;fill-opacity:1;stroke-width:.273572;stroke-linecap:round;paint-order:stroke fill markers"/><path d="M74.338 46.083a22.86 22.687 0 0 1 17.756-26.714 22.86 22.687 0 0 1 27.008 17.485 22.86 22.687 0 0 1-17.48 26.892 22.86 22.687 0 0 1-27.187-17.211" style="fill:#ecdcce;fill-opacity:1;stroke-width:.27134;stroke-linecap:round;paint-order:stroke fill markers"/><path d="M102.226 124.624c-7.847 10.121-34.752 6.512-45.652-3.604-10.9-10.117-10.013-22.847-10.013-22.847s-18.77 5.038-32.57-6.124C.191 80.886 2.31 55.153 15.02 46.492c12.711-8.66 23.372-5.291 31.463-1.333 8.09 3.958 11.121 12.796 11.121 12.796 4.555-4.666 10.406-8.07 16.491-10.231 0 0-4.984-6.384-4.275-19.293.708-12.91 16.7-25.05 34.194-21.068 17.494 3.983 22.974 24.742 19.416 34.75s-7.544 14.366-7.544 14.366 6.425 3.674 10.976 13.897-.418 21.323-.418 21.323c.231-6.382-2.101-14.465-6.583-21.637-4.482-7.171-12.262-12.032-14.447-12.222 0 0 7.265-7.972 9.703-17.494s-4.316-21.886-14.929-23.275c-10.612-1.39-19.17 4.57-20.77 13.864s4.946 21.015 4.946 21.015c-12.296 3.111-21.23 10.034-29.476 18.456 0 0-3.373-10.245-9.61-14.067-6.239-3.823-15.955-5.46-23.368.929-7.413 6.388-9.241 18.266.85 26.943s30.095 3.198 30.095 3.198-1.934 13.14 11.297 25.745 32.005 13.428 38.074 11.47" style="fill:#751e2d;fill-opacity:1;stroke-width:.529167;stroke-linecap:round;paint-order:stroke fill markers"/></svg>